<?xml version="1.0" encoding="utf-8"?>
<!-- Generator: Adobe Illustrator 18.1.0, SVG Export Plug-In . SVG Version: 6.00 Build 0)  -->
<!DOCTYPE svg PUBLIC "-//W3C//DTD SVG 1.1//EN" "http://www.w3.org/Graphics/SVG/1.1/DTD/svg11.dtd">
<svg version="1.1" id="Layer_1" xmlns="http://www.w3.org/2000/svg" xmlns:xlink="http://www.w3.org/1999/xlink" x="0px" y="0px"
	 width="1217px" height="211.9px" viewBox="0 0 1217 211.9" enable-background="new 0 0 1217 211.9" xml:space="preserve">
<path fill="#FFFFFF" d="M328.5,0c-4.9,0.2-9.8,0.7-14.8,0.6c-8.4-0.1-16.8-0.4-25.2-0.6C301.8,0,315.1,0,328.5,0z"/>
<path fill="#FFFFFF" d="M988.4,0c-13.3,0-26.7,0-40,0C961.7,0,975,0,988.4,0z"/>
<path fill="#FFFFFF" d="M167.5,0c-4.9,0.2-9.8,0.7-14.8,0.6c-8.1-0.1-16.2-0.4-24.2-0.6C141.5,0,154.5,0,167.5,0z"/>
<path fill="#FFFFFF" d="M833.4,0c-13,0-26,0-39,0C807.4,0,820.4,0,833.4,0z"/>
<path fill="#FFFFFF" d="M834.8,76.3c5.3-9.5,13.3-15.5,23.3-19c20-6.8,48-4,62.4,13.4c6.7,8.1,9.4,17.6,9.5,27.7
	c0.3,35,0.1,70,0.2,105c0,2.9-0.8,4.3-3.9,4.2c-10.2-0.1-20.3-0.1-30.5,0c-3.1,0-4-1.2-4-4.1c0.1-29.5,0.2-59,0-88.5
	c0-5.2-0.7-10.6-1.8-15.7c-2-10-9.6-13.7-18.7-15.4c-17.2-3-33.6,8.6-36.3,25.9c-1.1,7.2-1.8,14.5-1.9,21.7c-0.2,23.5-0.2,47,0,70.5
	c0,4.5-1.3,5.7-5.7,5.6c-9.2-0.3-18.3-0.3-27.5,0c-3.9,0.1-5.2-1-5.2-5.1c0.1-65.1,0.1-130.3,0-195.4c0-3.8,1.2-4.9,4.9-4.8
	c9.3,0.2,18.7,0.2,28,0c4.1-0.1,5.4,1.2,5.4,5.4c-0.2,21-0.1,42-0.1,63c0,1.7,0.2,3.4,0.3,5.1C833.8,76,834.3,76.2,834.8,76.3z"/>
<path fill="#FFFFFF" d="M634.9,164.5c-1.3,3.6-2.1,6.4-3.3,9c-8.9,19-23.1,32-44,36.3c-20.4,4.2-40.6,3.4-59.7-6.4
	c-15.1-7.7-24.2-20.5-29.2-36.3c-5.7-17.7-6.7-36.1-3.8-54.2c4.5-27.3,18.5-48.3,46.4-55.8c23.5-6.3,47-6,68.1,9.1
	c11.7,8.4,18.1,20.6,22.5,33.9c4,12.2,4.5,25.1,5.5,37.8c0.3,3.7-0.6,5.2-4.8,5.2c-31.8-0.2-63.6,0-95.5-0.3c-3.9,0-4.1,1.7-3.9,4.5
	c1.4,21.7,19.7,40.3,44.8,32.4c7.2-2.2,12.7-5.9,15.9-12.9c0.5-1.1,2.5-2.1,3.8-2.1C609.6,164.4,621.6,164.5,634.9,164.5z
	 M565.3,118.3c9.2,0,18.3,0,27.5,0c2.4,0,5.2,0.2,4.3-3.6c-1-4.2-1.9-8.4-3.5-12.3c-6.4-16.1-26.4-23.2-41.6-15
	c-10.4,5.7-15.6,14.7-17.4,26.2c-0.6,4,0.2,4.7,3.7,4.6C547.3,118.3,556.3,118.3,565.3,118.3z"/>
<path fill="#FFFFFF" d="M383.4,57.5c0,2.5,0,4.8,0,7c0,28.8-0.1,57.7,0.1,86.5c0.1,9.5,1.9,18.8,10.8,24.4
	c12.9,8.1,36.2,5.3,43.2-12.7c2.4-6,3.9-12.8,4-19.2c0.4-26.8,0.2-53.7,0.2-80.5c0-1.8,0-3.6,0-5.3c13,0,25.5,0,38.2,0
	c0,50,0,99.8,0,150c-11.8,0-23.6,0-36.2,0c0-6.6,0-13,0-19.3c-0.4-0.2-0.9-0.3-1.3-0.5c-1,1.1-2,2.2-2.9,3.4
	c-10.1,13.6-23.5,20.1-40.5,20.5c-13.5,0.4-25.8-2.2-36.1-11.3c-11.7-10.4-17.6-23.8-17.8-39.2c-0.5-33.3-0.2-66.7-0.2-100
	c0-2-0.4-4,2.9-3.9C359.4,57.6,371.2,57.5,383.4,57.5z"/>
<path fill="#FFFFFF" d="M684.3,161c5.5,23.1,28.4,24.9,45,20.9c3.6-0.9,7.4-2.1,10.4-4.2c8.2-5.6,7.2-19.2-2-23.1
	c-7.5-3.1-15.5-5-23.3-7.1c-17.2-4.7-34.5-8.8-49.4-19.6c-19.6-14.3-20.4-52.6,6.9-65.5c10.6-5,21.6-8.4,33.4-8.1
	c12,0.3,24.3-0.1,36,2.1c15.7,3,27.8,12.2,33.6,27.8c1.7,4.5,2.6,9.2,3.8,13.9c0.8,2.9-0.1,4.4-3.4,4.3c-10-0.1-20,0-30-0.1
	c-1.2,0-3.2-1.3-3.5-2.4c-2.7-9.3-8-15.4-18-17.3c-9.3-1.8-18.3-1.3-27,1.7c-4.2,1.4-7.6,4.2-8,9.7c-0.5,6.5,2.6,10.8,7.9,13.1
	c7.7,3.2,15.9,5.3,23.9,8.1c15.7,5.5,32.7,7.3,47.1,16.3c11.1,6.9,16.5,16.6,14.3,30.1c-0.7,4.1,1.1,8.6,0.2,12.6
	c-3.8,17.3-15.6,27.8-31.8,32.7c-23.6,7.2-47.6,7.1-70.9-1.6c-15.3-5.7-26.9-15.8-31.9-32c-1.2-3.9-1.5-8.1-2.3-12.5
	C658.6,161,671.4,161,684.3,161z"/>
<path fill="#FFFFFF" d="M1216.9,84.2c-14.2,0-27.7,0.1-41.1-0.1c-3.7-0.1-4.7,1.4-4.7,4.6c0.1,21.2-0.3,42.3,0.3,63.5
	c0.3,10.5,3.2,20.8,14.4,24.6c6.5,2.2,13.9,2.3,21,2.6c10.1,0.4,10.1,0.1,10.1,10c0,5.3,0.2,10.7-0.1,16c-0.1,1.5-1.7,3.7-3.1,4
	c-15.5,3.5-31,4-46-1.9c-21.5-8.4-33-24.8-33.8-47.6c-0.8-23.1-0.3-46.3-0.4-69.5c0-6.1-0.3-6.4-6.6-6.4c-9.8,0-19.6,0-30,0
	c0-8.6,0-17.1,0-25.9c9.9,0,20,0,30.1,0c6.1,0,6.5-0.4,6.5-6.6c0-11.4,0-22.9,0-34.6c12.3,0,24.6,0,37.6,0c0,3.7,0,7.3,0,10.9
	c0,8.2,0.1,16.3-0.1,24.5c-0.1,4.2,1.3,6,5.7,5.9c11.8-0.2,23.7,0,35.5-0.1c3.4,0,4.8,1,4.7,4.6
	C1216.7,69.8,1216.9,76.9,1216.9,84.2z"/>
<path fill="#FFFFFF" d="M1000.1,84.2c-0.1-1.7-0.3-3-0.3-4.2c0-7.1,0-14.2,0-21.8c6,0,11.4-0.2,16.8,0.1c4.4,0.2,6.1-1.7,6-5.8
	c-0.3-10.9,2.5-21,9-29.8c7.5-10.3,18.3-15.3,30.2-17.9c6.3-1.4,12.8-1.5,19.2-2.2c3.1-0.3,4.1,1.1,4,4.1c-0.1,7.3-0.2,14.7,0,22
	c0.1,2.9-0.9,4-3.9,4.3c-4.1,0.4-8.3,1.2-12,2.9c-6.5,3-10.6,12.6-8.8,19.6c0.3,1.3,2.8,2.7,4.3,2.8c6.8,0.3,13.6,0.1,21,0.1
	c0,1.1,0,2.2,0,3.3c0,6.5-0.2,13,0,19.5c0.1,2.7-0.4,3.5-3.2,3.4c-5.3-0.3-10.7,0.2-16-0.2c-5.2-0.4-6.5,1.5-6.5,6.5
	c0.2,36.6,0.1,73.3,0.1,109.9c0,1-0.1,2,0,3c0.3,3-0.9,4.2-4,4.2c-10.2-0.1-20.3-0.1-30.5,0c-2.8,0-3.5-1-3.5-3.9
	c0.2-38.1,0.1-76.3,0.2-114.4c0-3.7-1.1-5.5-5.3-5.2C1011.7,84.5,1006.2,84.2,1000.1,84.2z"/>
<path fill="#FFFFFF" d="M178.8,93.4c0-8.7-0.2-17.1,0.2-25.4c0.1-1.9,1.7-4.3,3.4-5.4c8.4-5.7,17.6-8.7,27.9-8.9
	c14.7-0.3,28.2,2.6,39.6,12.5c13.8,12.1,20.5,27.8,23.2,45.5c2.7,17.3,2.3,34.5-2.8,51.4c-6.3,20.9-17.7,37.9-39.3,45.3
	c-16.4,5.6-32.9,5.7-48.6-3.2c-2.5-1.4-3.8-3.1-3.7-6.3c0.2-8.7,0.1-17.5,0.1-27.1c9.2,7.8,18.5,10.3,29.3,7.6
	c6.6-1.6,11.7-5.2,15.8-10.3c7.5-9.4,10.9-20.3,10.9-32.4c0-9.7-0.2-19.2-3.8-28.5C222.9,87,198.9,79.7,180.3,93
	C180.1,93.1,179.7,93.1,178.8,93.4z"/>
<path fill="#FFFFFF" d="M327.8,207.9c-12.1,0-23.8,0-35.6,0c-2.5,0-3.4-0.7-3.4-3.5c0.1-64.9,0.1-129.9,0.1-194.8c0-2.1,0-4.3,0-6.9
	c12.9,0,25.8,0,38.9,0C327.8,71,327.8,139.2,327.8,207.9z"/>
<path fill="#FFFFFF" d="M128.9,2.6c13,0,25.4,0,38.6,0c-0.2,68.4,0.2,136.5-0.2,205.3c-13,0-24.4,0.1-35.9-0.1
	c-0.8,0-2.2-2.1-2.2-3.3c-0.1-65.1,0-130.3,0-195.4C129.2,7.1,129.1,5.1,128.9,2.6z"/>
<path fill="#FFFFFF" d="M66.2,50.1c12.6,0,24.7,0,37.1,0c0,3,0,5.7,0,8.5c0,47.7-0.1,95.3,0.1,143c0,4.8-1.3,6.4-6.2,6.2
	c-9-0.4-18-0.2-27-0.1c-3.1,0-4.5-0.7-4.5-4.2c0.1-50.3,0.1-100.6,0.1-151C65.8,51.9,66,51.2,66.2,50.1z"/>
<path fill="#FFFFFF" d="M0,95.8c12.6,0,24.7,0,37.1,0c0,2.1,0,4.1,0,6c0,33.8-0.1,67.7,0.1,101.5c0,3.4-1.3,4.5-6.2,4.4
	c-9-0.3-18-0.1-27,0c-3.1,0-4.5-0.5-4.5-3c0.1-35.7,0.1-71.5,0.1-107.2C-0.4,97.1-0.2,96.6,0,95.8z"/>
<path fill="#FFFFFF" d="M949.2,58.4c12.9,0,25.4,0,38.1,0c0,2.6,0,4.9,0,7.2c0,44.5,0,89,0,133.5c0,8.5,0,8.5-8.5,8.5
	c-8.5,0-17-0.1-25.5,0c-3.1,0-4.5-0.8-4.5-4.2c0.1-47.7,0.1-95.3,0.1-143C948.8,59.8,949.1,59.2,949.2,58.4z"/>
<path fill="#FFFFFF" d="M987.3,2.5c0,11.3,0,21.9,0,32.5c0,2.5-1,3.3-3.7,3.2c-10.3-0.3-20.6-0.4-30.9-0.1c-3.3,0.1-4-0.9-4-3.8
	c0.1-9.3,0-18.6,0.1-27.9c0-1.3,1.3-3.7,2.1-3.7C963.1,2.5,975.1,2.5,987.3,2.5z"/>
</svg>
